<svg width="246" height="32" viewBox="0 0 246 32" fill="none" xmlns="http://www.w3.org/2000/svg">
<g clip-path="url(#clip0_103_2284)">
<mask id="mask0_103_2284" style="mask-type:alpha" maskUnits="userSpaceOnUse" x="104" y="1" width="31" height="31">
<circle cx="119.5" cy="16.0001" r="15.0001" fill="white"/>
</mask>
<g mask="url(#mask0_103_2284)">
<rect x="104.5" y="1" width="30.0002" height="30.0002" fill="#A9E6FD"/>
<path fill-rule="evenodd" clip-rule="evenodd" d="M119.502 0.784241C127.79 0.784241 134.509 7.58669 134.509 15.9779C134.509 16.6509 134.466 17.3136 134.382 17.9635L134.38 17.9631C134.379 17.9734 134.377 17.9835 134.374 17.9936C134.076 19.158 124.939 18.7336 119.176 17.7611C112.855 16.6946 104.77 14.6891 104.766 13.1243L104.76 13.1233C106.079 6.09667 112.178 0.784241 119.502 0.784241Z" fill="url(#paint0_linear_103_2284)"/>
<path fill-rule="evenodd" clip-rule="evenodd" d="M119.176 17.7611C124.939 18.7336 134.076 19.158 134.374 17.9936C134.672 16.8293 128.692 14.756 120.516 13.411C118.526 13.0837 105.103 11.1362 104.766 13.1232C104.766 14.6881 112.854 16.6944 119.176 17.7611Z" fill="#D12000"/>
<path fill-rule="evenodd" clip-rule="evenodd" d="M121.459 5.31614C121.973 5.40665 122.318 5.90203 122.228 6.42261L119.115 24.5506C118.901 25.7981 119.727 26.9863 120.959 27.2032C122.191 27.4201 123.365 26.5839 123.579 25.3364L123.701 24.6259C123.791 24.1053 124.28 23.7567 124.794 23.8472C125.308 23.9377 125.653 24.4331 125.563 24.9536L125.441 25.6641C125.048 27.9528 122.896 29.4863 120.635 29.0884C118.375 28.6905 116.86 26.5115 117.253 24.2228L120.366 6.09483C120.456 5.57426 120.945 5.22563 121.459 5.31614Z" fill="black"/>
<path fill-rule="evenodd" clip-rule="evenodd" d="M119.502 0.784241C127.79 0.784241 134.509 7.58669 134.509 15.9779C134.509 16.6509 134.466 17.3136 134.382 17.9635L134.38 17.9631C134.568 16.7934 128.621 14.7443 120.516 13.411C118.526 13.0837 105.103 11.1362 104.766 13.1232C104.766 13.1236 104.766 13.1239 104.766 13.1243L104.76 13.1233C106.079 6.09667 112.178 0.784241 119.502 0.784241Z" fill="url(#paint1_linear_103_2284)"/>
</g>
</g>
<path d="M149.515 27L151.985 11.9199L154.26 27H159.687L162.45 4.41235H159.265L157.12 22.385L154.195 4.41235H150.197L147.207 22.4825L145.127 4.41235H141.487L144.25 27H149.515Z" fill="white"/>
<path d="M176.244 25.895V22.7425C175.041 23.555 173.026 24.27 171.141 24.27C168.313 24.27 167.241 22.9375 167.078 20.2075H176.406V18.16C176.406 12.4724 173.904 10.3274 170.036 10.3274C165.323 10.3274 163.081 13.9349 163.081 18.875C163.081 24.5625 165.876 27.325 170.816 27.325C173.286 27.325 175.106 26.675 176.244 25.895ZM169.971 13.3824C171.888 13.3824 172.474 14.9749 172.474 17.0225V17.3475H167.078C167.176 14.7474 168.118 13.3824 169.971 13.3824Z" fill="white"/>
<path d="M191.217 15.8524C191.217 11.8874 189.202 10.3924 185.107 10.3924C182.54 10.3924 180.525 11.2049 179.355 11.8874V15.1049C180.395 14.3249 182.67 13.4799 184.652 13.4799C186.505 13.4799 187.35 14.1299 187.35 15.8849V16.795H186.732C180.817 16.795 178.185 18.745 178.185 22.06C178.185 25.375 180.2 27.2275 183.19 27.2275C185.465 27.2275 186.44 26.48 187.187 25.7H187.35C187.382 26.1225 187.512 26.675 187.642 27H191.412C191.282 25.6675 191.217 24.335 191.217 23.0025V15.8524ZM187.35 23.1C186.862 23.815 185.952 24.4 184.587 24.4C182.962 24.4 182.15 23.425 182.15 21.9625C182.15 20.045 183.482 19.3625 186.797 19.3625H187.35V23.1Z" fill="white"/>
<path d="M192.709 10.6524V13.7074H194.757V22.0925C194.757 25.1475 196.48 27.325 200.055 27.325C201.94 27.325 203.012 26.9025 203.012 26.9025V23.75C203.012 23.75 202.297 24.27 200.997 24.27C199.372 24.27 198.625 23.3275 198.625 22.125V13.7074H202.687V10.6524H198.625V7.07737H194.757V10.6524H192.709Z" fill="white"/>
<path d="M208.827 15.2674C209.542 14.3899 210.679 13.6424 212.077 13.6424C213.442 13.6424 214.059 14.2274 214.059 15.4624V27H217.927V15.0724C217.927 11.8224 216.627 10.3924 213.474 10.3924C211.167 10.3924 209.802 11.2374 209.022 12.0174H208.827V4.41235H204.959V27H208.827V15.2674Z" fill="white"/>
<path d="M233.532 25.895V22.7425C232.329 23.555 230.314 24.27 228.429 24.27C225.602 24.27 224.529 22.9375 224.367 20.2075H233.694V18.16C233.694 12.4724 231.192 10.3274 227.324 10.3274C222.611 10.3274 220.369 13.9349 220.369 18.875C220.369 24.5625 223.164 27.325 228.104 27.325C230.574 27.325 232.394 26.675 233.532 25.895ZM227.259 13.3824C229.177 13.3824 229.762 14.9749 229.762 17.0225V17.3475H224.367C224.464 14.7474 225.407 13.3824 227.259 13.3824Z" fill="white"/>
<path d="M240.153 16.795C241.225 14.8124 242.818 13.8049 245.19 13.9349V10.2949C242.98 10.4249 241.16 11.7574 240.25 13.9024H240.153L240.055 10.6524H236.285V27H240.153V16.795Z" fill="white"/>
<path d="M12.9676 27.0001V23.1651C12.9676 20.2726 12.6101 19.4276 11.5051 17.0225L5.72003 4.41245H1.625L9.03506 20.5326V27.0001H12.9676ZM15.5351 15.3325L20.3451 4.41245H16.3476L11.5376 15.3325H15.5351ZM56.6154 27.3251C58.4354 27.3251 59.9305 26.4801 60.9705 24.8876L61.1655 27.0001H64.7405V4.41245H60.873V12.57C59.898 11.1075 58.4679 10.3275 56.7779 10.3275C53.0404 10.3275 50.4404 13.48 50.4404 18.9401C50.4404 24.3351 52.9754 27.3251 56.6154 27.3251ZM80.3731 25.8951V22.7426C79.1706 23.5551 77.1556 24.2701 75.2706 24.2701C72.4431 24.2701 71.3705 22.9376 71.208 20.2076H80.5356V18.1601C80.5356 12.4725 78.0331 10.3275 74.1656 10.3275C69.453 10.3275 67.2105 13.935 67.2105 18.8751C67.2105 24.5626 70.0055 27.3251 74.9456 27.3251C77.4156 27.3251 79.2356 26.6751 80.3731 25.8951ZM31.7202 15.8525C31.7202 11.8875 29.7052 10.3925 25.6102 10.3925C23.0752 10.3925 21.0277 11.465 19.8576 12.31V15.6575C21.0927 14.65 22.9777 13.48 25.1552 13.48C27.0077 13.48 27.8527 14.13 27.8527 15.885V16.925H27.2352C21.3202 16.925 18.6876 18.8426 18.6876 22.2551C18.6876 25.4076 20.7026 27.2276 23.6927 27.2276C25.9677 27.2276 26.9427 26.4801 27.6902 25.7001H27.8527C27.8852 26.1226 28.0152 26.6751 28.1452 27.0001H31.9152C31.7852 25.6676 31.7202 24.3351 31.7202 23.0026V15.8525ZM38.7403 15.2675C39.4553 14.39 40.5928 13.6425 41.9903 13.6425C43.3553 13.6425 43.9728 14.2275 43.9728 15.4625V27.0001H47.8404V15.0725C47.8404 11.8225 46.5403 10.3925 43.3878 10.3925C41.0803 10.3925 39.7153 11.2375 38.9353 12.0175H38.7403L38.6428 10.6525H34.8728V27.0001H38.7403V15.2675ZM92.2682 27.0001H96.6232L91.2932 18.5826L95.9082 10.6525H92.0407L89.2457 15.5925L86.1257 10.6525H81.7706L86.7107 18.4851L81.5756 27.0001H85.5081L88.7907 21.4751L92.2682 27.0001ZM57.7529 13.3825C59.833 13.3825 60.873 15.04 60.873 18.8101C60.873 22.6126 59.768 24.2701 57.5904 24.2701C55.4779 24.2701 54.4379 22.6451 54.4379 18.9401C54.4379 15.0725 55.5429 13.3825 57.7529 13.3825ZM74.1006 13.3825C76.0181 13.3825 76.6031 14.975 76.6031 17.0225V17.3475H71.208C71.3055 14.7475 72.248 13.3825 74.1006 13.3825ZM27.8527 23.1001C27.3652 23.8151 26.4552 24.4001 25.0902 24.4001C23.4652 24.4001 22.6527 23.4576 22.6527 22.0276C22.6527 20.1426 23.9852 19.4926 27.3002 19.4926H27.8527V23.1001Z" fill="white"/>
<defs>
<linearGradient id="paint0_linear_103_2284" x1="121.688" y1="4.12503" x2="118.875" y2="19.4376" gradientUnits="userSpaceOnUse">
<stop stop-color="#FC3F1D"/>
<stop offset="1" stop-color="#FD8974"/>
</linearGradient>
<linearGradient id="paint1_linear_103_2284" x1="121.794" y1="5.79807" x2="118.013" y2="28.5944" gradientUnits="userSpaceOnUse">
<stop stop-color="#FC3F1D"/>
<stop offset="1" stop-color="#FC3F1D" stop-opacity="0"/>
</linearGradient>
<clipPath id="clip0_103_2284">
<rect width="30.0002" height="30.0002" fill="white" transform="translate(104.5 1)"/>
</clipPath>
</defs>
</svg>
