<svg xmlns="http://www.w3.org/2000/svg" width="24" height="24" viewBox="0 0 24 24">
  <defs>
    <linearGradient id="bkn_ra_n-a" x1="50%" x2="50%" y1="0%" y2="100%">
      <stop offset="0%" stop-color="#FFCA3C"/>
      <stop offset="100%" stop-color="#FFB300"/>
    </linearGradient>
    <radialGradient id="bkn_ra_n-b" cx="26.872%" cy="15.007%" r="92.219%" fx="26.872%" fy="15.007%">
      <stop offset="0%" stop-color="#FF6A00" stop-opacity="0"/>
      <stop offset="66.944%" stop-color="#FF6A00" stop-opacity="0"/>
      <stop offset="100%" stop-color="#FF6A00"/>
    </radialGradient>
    <radialGradient id="bkn_ra_n-c" cx="82.715%" cy="14.258%" fx="82.715%" fy="14.258%">
      <stop offset="0%" stop-color="#777AB4"/>
      <stop offset="100%" stop-color="#777AB4" stop-opacity="0"/>
    </radialGradient>
    <radialGradient id="bkn_ra_n-d" cx="8.171%" cy="-6.535%" r="63.588%" fx="8.171%" fy="-6.535%">
      <stop offset="0%" stop-color="#777AB4"/>
      <stop offset="100%" stop-color="#777AB4" stop-opacity="0"/>
    </radialGradient>
  </defs>
  <g fill="none" fill-rule="evenodd">
    <path fill="url(#bkn_ra_n-a)" d="M7.50825261,2.36674739 C9.1927071,3.07743807 10.375,4.74439938 10.375,6.6875 C10.375,9.27633476 8.27633476,11.375 5.6875,11.375 C3.74439938,11.375 2.07743807,10.1927071 1.36674739,8.50825261 C1.92652786,8.74443042 2.54176585,8.875 3.1875,8.875 C5.77633476,8.875 7.875,6.77633476 7.875,4.1875 C7.875,3.54176585 7.74443042,2.92652786 7.50825261,2.36674739 L7.50825261,2.36674739 Z"/>
    <circle cx="5.688" cy="6.688" r="4.688" fill="url(#bkn_ra_n-b)" opacity=".3"/>
    <path fill="#000" fill-opacity=".02" d="M8,17.5 C5.790861,17.5 4,15.709139 4,13.5 C4,11.290861 5.790861,9.5 8,9.5 C8.41665567,9.5 8.81843235,9.56370454 9.19612127,9.68190486 C9.75960062,7.83975064 11.4733425,6.5 13.5,6.5 C15.9852814,6.5 18,8.51471863 18,11 C18,11.2345695 17.9820524,11.4649471 17.9474555,11.6898344 C18.2749642,11.5671106 18.6296448,11.5 19,11.5 C20.6568542,11.5 22,12.8431458 22,14.5 C22,16.1568542 20.6568542,17.5 19,17.5 L8,17.5 Z"/>
    <path fill="#000" fill-opacity=".02" d="M8,17.75 C5.790861,17.75 4,15.959139 4,13.75 C4,11.540861 5.790861,9.75 8,9.75 C8.41665567,9.75 8.81843235,9.81370454 9.19612127,9.93190486 C9.75960062,8.08975064 11.4733425,6.75 13.5,6.75 C15.9852814,6.75 18,8.76471863 18,11.25 C18,11.4845695 17.9820524,11.7149471 17.9474555,11.9398344 C18.2749642,11.8171106 18.6296448,11.75 19,11.75 C20.6568542,11.75 22,13.0931458 22,14.75 C22,16.4068542 20.6568542,17.75 19,17.75 L8,17.75 Z"/>
    <path fill="#000" fill-opacity=".02" d="M8,18 C5.790861,18 4,16.209139 4,14 C4,11.790861 5.790861,10 8,10 C8.41665567,10 8.81843235,10.0637045 9.19612127,10.1819049 C9.75960062,8.33975064 11.4733425,7 13.5,7 C15.9852814,7 18,9.01471863 18,11.5 C18,11.7345695 17.9820524,11.9649471 17.9474555,12.1898344 C18.2749642,12.0671106 18.6296448,12 19,12 C20.6568542,12 22,13.3431458 22,15 C22,16.6568542 20.6568542,18 19,18 L8,18 Z"/>
    <path fill="#000" fill-opacity=".02" fill-rule="nonzero" d="M18.25,10.5 C18.25,7.87664744 16.1233526,5.75 13.5,5.75 C11.4804032,5.75 9.70821341,7.02165645 9.03456828,8.8768648 C8.69907844,8.79293371 8.35233296,8.75 8,8.75 C5.65278981,8.75 3.75,10.6527898 3.75,13 C3.75,15.3472102 5.65278981,17.25 8,17.25 L19,17.25 C20.7949254,17.25 22.25,15.7949254 22.25,14 C22.25,12.2050746 20.7949254,10.75 19,10.75 C18.7406655,10.75 18.4853551,10.7804333 18.2380174,10.8398742 C18.245992,10.7271639 18.25,10.613824 18.25,10.5 Z"/>
    <path fill="#FFF" d="M8,17 C5.790861,17 4,15.209139 4,13 C4,10.790861 5.790861,9 8,9 C8.41665567,9 8.81843235,9.06370454 9.19612127,9.18190486 C9.75960062,7.33975064 11.4733425,6 13.5,6 C15.9852814,6 18,8.01471863 18,10.5 C18,10.7345695 17.9820524,10.9649471 17.9474555,11.1898344 C18.2749642,11.0671106 18.6296448,11 19,11 C20.6568542,11 22,12.3431458 22,14 C22,15.6568542 20.6568542,17 19,17 L8,17 Z"/>
    <circle cx="8" cy="13" r="4" fill="url(#bkn_ra_n-c)" opacity=".24"/>
    <circle cx="19" cy="14" r="3" fill="url(#bkn_ra_n-d)" opacity=".24"/>
    <circle cx="13.5" cy="10.5" r="4.5" fill="#FFF"/>
    <path stroke="#BCF2FE" stroke-linecap="round" stroke-linejoin="round" stroke-width="1.5" d="M8.80000019 19.7536011L7.75 22.2530518M16.8000002 19.7536011L15.75 22.2530518M12.8000002 18.7536011L11.75 21.2530518"/>
  </g>
</svg>
