<svg xmlns="http://www.w3.org/2000/svg" width="24" height="24" viewBox="0 0 24 24">
  <defs>
    <linearGradient id="bkn_n-a" x1="50%" x2="50%" y1="0%" y2="100%">
      <stop offset="0%" stop-color="#FFCA3C"/>
      <stop offset="100%" stop-color="#FFB300"/>
    </linearGradient>
    <radialGradient id="bkn_n-b" cx="26.872%" cy="15.007%" r="92.219%" fx="26.872%" fy="15.007%">
      <stop offset="0%" stop-color="#FF6A00" stop-opacity="0"/>
      <stop offset="66.944%" stop-color="#FF6A00" stop-opacity="0"/>
      <stop offset="100%" stop-color="#FF6A00"/>
    </radialGradient>
    <radialGradient id="bkn_n-c" cx="82.715%" cy="14.258%" fx="82.715%" fy="14.258%">
      <stop offset="0%" stop-color="#777AB4"/>
      <stop offset="100%" stop-color="#777AB4" stop-opacity="0"/>
    </radialGradient>
    <radialGradient id="bkn_n-d" cx="8.171%" cy="-6.535%" r="63.588%" fx="8.171%" fy="-6.535%">
      <stop offset="0%" stop-color="#777AB4"/>
      <stop offset="100%" stop-color="#777AB4" stop-opacity="0"/>
    </radialGradient>
  </defs>
  <g fill="none" fill-rule="evenodd">
    <path fill="url(#bkn_n-a)" d="M7.50825261,4.36674739 C9.1927071,5.07743807 10.375,6.74439938 10.375,8.6875 C10.375,11.2763348 8.27633476,13.375 5.6875,13.375 C3.74439938,13.375 2.07743807,12.1927071 1.36674739,10.5082526 C1.92652786,10.7444304 2.54176585,10.875 3.1875,10.875 C5.77633476,10.875 7.875,8.77633476 7.875,6.1875 C7.875,5.54176585 7.74443042,4.92652786 7.50825261,4.36674739 L7.50825261,4.36674739 Z"/>
    <circle cx="5.688" cy="8.688" r="4.688" fill="url(#bkn_n-b)" opacity=".3"/>
    <path fill="#000" fill-opacity=".02" d="M8,19.5 C5.790861,19.5 4,17.709139 4,15.5 C4,13.290861 5.790861,11.5 8,11.5 C8.41665567,11.5 8.81843235,11.5637045 9.19612127,11.6819049 C9.75960062,9.83975064 11.4733425,8.5 13.5,8.5 C15.9852814,8.5 18,10.5147186 18,13 C18,13.2345695 17.9820524,13.4649471 17.9474555,13.6898344 C18.2749642,13.5671106 18.6296448,13.5 19,13.5 C20.6568542,13.5 22,14.8431458 22,16.5 C22,18.1568542 20.6568542,19.5 19,19.5 L8,19.5 Z"/>
    <path fill="#000" fill-opacity=".02" d="M8,19.75 C5.790861,19.75 4,17.959139 4,15.75 C4,13.540861 5.790861,11.75 8,11.75 C8.41665567,11.75 8.81843235,11.8137045 9.19612127,11.9319049 C9.75960062,10.0897506 11.4733425,8.75 13.5,8.75 C15.9852814,8.75 18,10.7647186 18,13.25 C18,13.4845695 17.9820524,13.7149471 17.9474555,13.9398344 C18.2749642,13.8171106 18.6296448,13.75 19,13.75 C20.6568542,13.75 22,15.0931458 22,16.75 C22,18.4068542 20.6568542,19.75 19,19.75 L8,19.75 Z"/>
    <path fill="#000" fill-opacity=".02" d="M8,20 C5.790861,20 4,18.209139 4,16 C4,13.790861 5.790861,12 8,12 C8.41665567,12 8.81843235,12.0637045 9.19612127,12.1819049 C9.75960062,10.3397506 11.4733425,9 13.5,9 C15.9852814,9 18,11.0147186 18,13.5 C18,13.7345695 17.9820524,13.9649471 17.9474555,14.1898344 C18.2749642,14.0671106 18.6296448,14 19,14 C20.6568542,14 22,15.3431458 22,17 C22,18.6568542 20.6568542,20 19,20 L8,20 Z"/>
    <path fill="#000" fill-opacity=".02" fill-rule="nonzero" d="M18.25,12.5 C18.25,9.87664744 16.1233526,7.75 13.5,7.75 C11.4804032,7.75 9.70821341,9.02165645 9.03456828,10.8768648 C8.69907844,10.7929337 8.35233296,10.75 8,10.75 C5.65278981,10.75 3.75,12.6527898 3.75,15 C3.75,17.3472102 5.65278981,19.25 8,19.25 L19,19.25 C20.7949254,19.25 22.25,17.7949254 22.25,16 C22.25,14.2050746 20.7949254,12.75 19,12.75 C18.7406655,12.75 18.4853551,12.7804333 18.2380174,12.8398742 C18.245992,12.7271639 18.25,12.613824 18.25,12.5 Z"/>
    <path fill="#FFF" d="M8,19 C5.790861,19 4,17.209139 4,15 C4,12.790861 5.790861,11 8,11 C8.41665567,11 8.81843235,11.0637045 9.19612127,11.1819049 C9.75960062,9.33975064 11.4733425,8 13.5,8 C15.9852814,8 18,10.0147186 18,12.5 C18,12.7345695 17.9820524,12.9649471 17.9474555,13.1898344 C18.2749642,13.0671106 18.6296448,13 19,13 C20.6568542,13 22,14.3431458 22,16 C22,17.6568542 20.6568542,19 19,19 L8,19 Z"/>
    <circle cx="8" cy="15" r="4" fill="url(#bkn_n-c)" opacity=".24"/>
    <circle cx="19" cy="16" r="3" fill="url(#bkn_n-d)" opacity=".24"/>
    <circle cx="13.5" cy="12.5" r="4.5" fill="#FFF"/>
  </g>
</svg>
