<svg xmlns="http://www.w3.org/2000/svg" xmlns:xlink="http://www.w3.org/1999/xlink" width="24" height="24" viewBox="0 0 24 24">
  <defs>
    <radialGradient id="bkn_d-a" cy="50.21%" r="48.457%" fx="50%" fy="50.21%">
      <stop offset=".062%" stop-color="#FFCE47"/>
      <stop offset="100%" stop-color="#FFB300"/>
    </radialGradient>
    <radialGradient id="bkn_d-b" cx="10.956%" cy="64.355%" r="56.514%" fx="10.956%" fy="64.355%">
      <stop offset="0%" stop-color="#E85423"/>
      <stop offset="100%" stop-color="#E85423" stop-opacity="0"/>
    </radialGradient>
    <radialGradient id="bkn_d-d" cx="56.956%" cy="106.356%" r="39.878%" fx="56.956%" fy="106.356%">
      <stop offset="0%" stop-color="#E85423"/>
      <stop offset="100%" stop-color="#E85423" stop-opacity="0"/>
    </radialGradient>
    <circle id="bkn_d-c" cx="16" cy="10" r="4"/>
    <radialGradient id="bkn_d-e" cx="82.715%" cy="14.258%" fx="82.715%" fy="14.258%">
      <stop offset="0%" stop-color="#777AB4"/>
      <stop offset="100%" stop-color="#777AB4" stop-opacity="0"/>
    </radialGradient>
    <radialGradient id="bkn_d-f" cx="8.171%" cy="-6.535%" r="63.588%" fx="8.171%" fy="-6.535%">
      <stop offset="0%" stop-color="#777AB4"/>
      <stop offset="100%" stop-color="#777AB4" stop-opacity="0"/>
    </radialGradient>
  </defs>
  <g fill="none" fill-rule="evenodd">
    <circle cx="16" cy="10" r="4" fill="url(#bkn_d-a)"/>
    <path stroke="#FFB300" stroke-linecap="round" stroke-linejoin="round" stroke-width="1.5" d="M14.8712868,2.84874961 L14.8712868,4.34874961" transform="rotate(-10 14.871 3.599)"/>
    <path stroke="#FFB300" stroke-linecap="round" stroke-linejoin="round" stroke-width="1.5" d="M17.1287132,15.6512504 L17.1287132,17.1512504" transform="rotate(-10 17.129 16.401)"/>
    <path stroke="#FFB300" stroke-linecap="round" stroke-linejoin="round" stroke-width="1.5" d="M19.7282468,3.92551171 L19.7282468,5.42551171" transform="rotate(35 19.728 4.676)"/>
    <path stroke="#FFB300" stroke-linecap="round" stroke-linejoin="round" stroke-width="1.5" d="M12.2717532,14.5744883 L12.2717532,16.0744883" transform="rotate(35 12.272 15.324)"/>
    <path stroke="#FFB300" stroke-linecap="round" stroke-linejoin="round" stroke-width="1.5" d="M10.6755117,5.52175316 L10.6755117,7.02175316" transform="rotate(-55 10.676 6.272)"/>
    <path stroke="#FFB300" stroke-linecap="round" stroke-linejoin="round" stroke-width="1.5" d="M21.3244883,12.9782468 L21.3244883,14.4782468" transform="rotate(-55 21.324 13.728)"/>
    <path stroke="#FFB300" stroke-linecap="round" stroke-linejoin="round" stroke-width="1.5" d="M22.4012504,8.12128685 L22.4012504,9.62128685" transform="rotate(80 22.401 8.871)"/>
    <path stroke="#FFB300" stroke-linecap="round" stroke-linejoin="round" stroke-width="1.5" d="M9.59874961,10.3787132 L9.59874961,11.8787132" transform="rotate(80 9.599 11.129)"/>
    <g opacity=".5">
      <use fill="url(#bkn_d-b)" xlink:href="#bkn_d-c"/>
      <use fill="url(#bkn_d-d)" xlink:href="#bkn_d-c"/>
    </g>
    <path fill="#000" fill-opacity=".02" d="M6,19.5 C3.790861,19.5 2,17.709139 2,15.5 C2,13.290861 3.790861,11.5 6,11.5 C6.41665567,11.5 6.81843235,11.5637045 7.19612127,11.6819049 C7.75960062,9.83975064 9.47334255,8.5 11.5,8.5 C13.9852814,8.5 16,10.5147186 16,13 C16,13.2345695 15.9820524,13.4649471 15.9474555,13.6898344 C16.2749642,13.5671106 16.6296448,13.5 17,13.5 C18.6568542,13.5 20,14.8431458 20,16.5 C20,18.1568542 18.6568542,19.5 17,19.5 L6,19.5 Z"/>
    <path fill="#000" fill-opacity=".02" d="M6,19.75 C3.790861,19.75 2,17.959139 2,15.75 C2,13.540861 3.790861,11.75 6,11.75 C6.41665567,11.75 6.81843235,11.8137045 7.19612127,11.9319049 C7.75960062,10.0897506 9.47334255,8.75 11.5,8.75 C13.9852814,8.75 16,10.7647186 16,13.25 C16,13.4845695 15.9820524,13.7149471 15.9474555,13.9398344 C16.2749642,13.8171106 16.6296448,13.75 17,13.75 C18.6568542,13.75 20,15.0931458 20,16.75 C20,18.4068542 18.6568542,19.75 17,19.75 L6,19.75 Z"/>
    <path fill="#000" fill-opacity=".02" d="M6,20 C3.790861,20 2,18.209139 2,16 C2,13.790861 3.790861,12 6,12 C6.41665567,12 6.81843235,12.0637045 7.19612127,12.1819049 C7.75960062,10.3397506 9.47334255,9 11.5,9 C13.9852814,9 16,11.0147186 16,13.5 C16,13.7345695 15.9820524,13.9649471 15.9474555,14.1898344 C16.2749642,14.0671106 16.6296448,14 17,14 C18.6568542,14 20,15.3431458 20,17 C20,18.6568542 18.6568542,20 17,20 L6,20 Z"/>
    <path fill="#000" fill-opacity=".02" fill-rule="nonzero" d="M16.25,12.5 C16.25,9.87664744 14.1233526,7.75 11.5,7.75 C9.48040323,7.75 7.70821341,9.02165645 7.03456828,10.8768648 C6.69907844,10.7929337 6.35233296,10.75 6,10.75 C3.65278981,10.75 1.75,12.6527898 1.75,15 C1.75,17.3472102 3.65278981,19.25 6,19.25 L17,19.25 C18.7949254,19.25 20.25,17.7949254 20.25,16 C20.25,14.2050746 18.7949254,12.75 17,12.75 C16.7406655,12.75 16.4853551,12.7804333 16.2380174,12.8398742 C16.245992,12.7271639 16.25,12.613824 16.25,12.5 Z"/>
    <path fill="#FFF" d="M6,19 C3.790861,19 2,17.209139 2,15 C2,12.790861 3.790861,11 6,11 C6.41665567,11 6.81843235,11.0637045 7.19612127,11.1819049 C7.75960062,9.33975064 9.47334255,8 11.5,8 C13.9852814,8 16,10.0147186 16,12.5 C16,12.7345695 15.9820524,12.9649471 15.9474555,13.1898344 C16.2749642,13.0671106 16.6296448,13 17,13 C18.6568542,13 20,14.3431458 20,16 C20,17.6568542 18.6568542,19 17,19 L6,19 Z"/>
    <circle cx="6" cy="15" r="4" fill="url(#bkn_d-e)" opacity=".24"/>
    <circle cx="17" cy="16" r="3" fill="url(#bkn_d-f)" opacity=".24"/>
    <circle cx="11.5" cy="12.5" r="4.5" fill="#FFF"/>
  </g>
</svg>
