<svg xmlns="http://www.w3.org/2000/svg" width="24" height="24" viewBox="0 0 24 24">
  <defs>
    <linearGradient id="fg_n-a" x1="50%" x2="50%" y1="0%" y2="100%">
      <stop offset="0%" stop-color="#FFCA3C"/>
      <stop offset="100%" stop-color="#FFB300"/>
    </linearGradient>
  </defs>
  <g fill="none" fill-rule="evenodd">
    <path fill="url(#fg_n-a)" d="M13.4132042,3.58679582 C16.1083314,4.72390091 18,7.39103901 18,10.5 C18,14.6421356 14.6421356,18 10.5,18 C7.39103901,18 4.72390091,16.1083314 3.58679582,13.4132042 C4.48244458,13.7910887 5.46682536,14 6.5,14 C10.6421356,14 14,10.6421356 14,6.5 C14,5.46682536 13.7910887,4.48244458 13.4132042,3.58679582 L13.4132042,3.58679582 Z"/>
    <path fill="#FFF" fill-rule="nonzero" d="M3,19.000991 L3,19 C3.55228475,19 4,18.5522847 4,18 C4,17.4477153 3.55228475,17 3,17 C2.44771525,17 2,16.5522847 2,16 C2,15.4477153 2.44771525,15 3,15 C3.55228475,15 4,14.5522847 4,14 C4,13.4477153 3.55228475,13 3,13 C2.44771525,13 2,12.5522847 2,12 C2,11.4477153 2.44771525,11 3,11 L11,11 C11.5522847,11 12,11.4477153 12,12 C12,12.5522847 11.5522847,13 11,13 C10.4477153,13 10,13.4477153 10,14 C10,14.5522847 10.4477153,15 11,15 L17,15 C17.5522847,15 18,15.4477153 18,16 C18,16.5522847 17.5522847,17 17,17 C16.4477153,17 16,17.4477153 16,18 C16,18.5522847 16.4477153,19 17,19 L21.0449219,19 C21.5972066,19 22.0449219,19.4477153 22.0449219,20 C22.0449219,20.5522847 21.5972066,21 21.0449219,21 L3.04492188,21 C2.49263713,21 2.04492188,20.5522847 2.04492188,20 C2.04492188,19.4627692 2.46856246,19.024485 3,19.000991 L3,19.000991 Z" opacity=".7" transform="matrix(-1 0 0 1 24.045 0)"/>
  </g>
</svg>
