<svg xmlns="http://www.w3.org/2000/svg" width="24" height="24" viewBox="0 0 24 24">
  <g fill="none" fill-rule="evenodd">
    <path fill="#56B868" fill-rule="nonzero" d="M3.07982238,12.5054121 C2.50219918,7.8010487 5.77406847,3.64317279 10.505677,3.06220432 C10.6932274,3.03917602 10.8827074,3.02488275 11.0750402,3.01890372 C12.0812218,2.98762462 12.6136071,3.08287819 14.7321011,3.57270653 C17.1569566,4.13337038 18.6264407,4.26322065 20.5920429,3.8856572 C21.2586979,3.75760252 21.7389281,4.51046725 21.3417568,5.06099597 C20.9489225,5.6055131 20.6400251,6.18543411 20.4029069,6.8059114 C19.9134968,8.08657159 19.7859767,9.10810428 19.7012957,11.3103262 C19.6882605,11.6493212 19.6797273,11.8426349 19.6678986,12.0439847 C19.4137038,16.3708986 16.7387607,19.4173369 12.4993896,19.9378662 C11.3754721,20.0758659 8.23913574,20.2768555 5.66601474,17.6208177 C4.18742567,16.0945824 3.34381564,14.6554647 3.07982238,12.5054121 Z"/>
    <path fill="#50A167" fill-rule="nonzero" d="M21.3647076,4.21709609 C21.5194751,4.45829377 21.5408267,4.78506037 21.3417568,5.06099597 C20.9489225,5.6055131 20.6400251,6.18543411 20.4029069,6.8059114 C19.9134968,8.08657159 19.7859767,9.10810428 19.7012957,11.3103262 C19.6882605,11.6493212 19.6797273,11.8426349 19.6678986,12.0439847 C19.4137038,16.3708986 16.7387607,19.4173369 12.4993896,19.9378662 C11.3906905,20.0739973 8.32370212,20.271424 5.77084245,17.727146 C8.21773828,10.885142 14.1139951,5.68349025 21.3647076,4.21709609 Z"/>
    <path stroke="#50A167" stroke-linecap="round" stroke-linejoin="round" stroke-width="1.5" d="M12,10.0826416 C8.74832886,12.7574337 6.56023093,16.0061035 5.75,21.2647059"/>
  </g>
</svg>
