<svg xmlns="http://www.w3.org/2000/svg" width="24" height="24" viewBox="0 0 24 24">
  <defs>
    <radialGradient id="ovc-a" cx="82.715%" cy="14.258%" fx="82.715%" fy="14.258%">
      <stop offset="0%" stop-color="#777AB4"/>
      <stop offset="100%" stop-color="#777AB4" stop-opacity="0"/>
    </radialGradient>
    <radialGradient id="ovc-b" cx="8.171%" cy="-6.535%" r="63.588%" fx="8.171%" fy="-6.535%">
      <stop offset="0%" stop-color="#777AB4"/>
      <stop offset="100%" stop-color="#777AB4" stop-opacity="0"/>
    </radialGradient>
  </defs>
  <g fill="none" fill-rule="evenodd">
    <path fill="#F5F5F5" d="M9,14 C7.34314575,14 6,12.6568542 6,11 C6,9.34314575 7.34314575,8 9,8 C9.01033442,8 9.02065664,8.00005225 9.0309664,8.00015651 C9.01052837,7.83630918 9,7.66938411 9,7.5 C9,5.290861 10.790861,3.5 13,3.5 C14.7500912,3.5 16.2376757,4.62392449 16.780334,6.18935387 C17.1648543,6.06638317 17.5746748,6 18,6 C20.209139,6 22,7.790861 22,10 C22,12.209139 20.209139,14 18,14 C17.6547004,14 17.3196199,13.956247 17,13.8739825 L17,14 L9,14 Z" opacity=".5" transform="matrix(-1 0 0 1 28 0)"/>
    <path fill="#000" fill-opacity=".02" d="M6,19.5 C3.790861,19.5 2,17.709139 2,15.5 C2,13.290861 3.790861,11.5 6,11.5 C6.41665567,11.5 6.81843235,11.5637045 7.19612127,11.6819049 C7.75960062,9.83975064 9.47334255,8.5 11.5,8.5 C13.9852814,8.5 16,10.5147186 16,13 C16,13.2345695 15.9820524,13.4649471 15.9474555,13.6898344 C16.2749642,13.5671106 16.6296448,13.5 17,13.5 C18.6568542,13.5 20,14.8431458 20,16.5 C20,18.1568542 18.6568542,19.5 17,19.5 L6,19.5 Z"/>
    <path fill="#000" fill-opacity=".02" d="M6,19.75 C3.790861,19.75 2,17.959139 2,15.75 C2,13.540861 3.790861,11.75 6,11.75 C6.41665567,11.75 6.81843235,11.8137045 7.19612127,11.9319049 C7.75960062,10.0897506 9.47334255,8.75 11.5,8.75 C13.9852814,8.75 16,10.7647186 16,13.25 C16,13.4845695 15.9820524,13.7149471 15.9474555,13.9398344 C16.2749642,13.8171106 16.6296448,13.75 17,13.75 C18.6568542,13.75 20,15.0931458 20,16.75 C20,18.4068542 18.6568542,19.75 17,19.75 L6,19.75 Z"/>
    <path fill="#000" fill-opacity=".02" d="M6,20 C3.790861,20 2,18.209139 2,16 C2,13.790861 3.790861,12 6,12 C6.41665567,12 6.81843235,12.0637045 7.19612127,12.1819049 C7.75960062,10.3397506 9.47334255,9 11.5,9 C13.9852814,9 16,11.0147186 16,13.5 C16,13.7345695 15.9820524,13.9649471 15.9474555,14.1898344 C16.2749642,14.0671106 16.6296448,14 17,14 C18.6568542,14 20,15.3431458 20,17 C20,18.6568542 18.6568542,20 17,20 L6,20 Z"/>
    <path fill="#000" fill-opacity=".02" fill-rule="nonzero" d="M16.25,12.5 C16.25,9.87664744 14.1233526,7.75 11.5,7.75 C9.48040323,7.75 7.70821341,9.02165645 7.03456828,10.8768648 C6.69907844,10.7929337 6.35233296,10.75 6,10.75 C3.65278981,10.75 1.75,12.6527898 1.75,15 C1.75,17.3472102 3.65278981,19.25 6,19.25 L17,19.25 C18.7949254,19.25 20.25,17.7949254 20.25,16 C20.25,14.2050746 18.7949254,12.75 17,12.75 C16.7406655,12.75 16.4853551,12.7804333 16.2380174,12.8398742 C16.245992,12.7271639 16.25,12.613824 16.25,12.5 Z"/>
    <path fill="#FFF" d="M6,19 C3.790861,19 2,17.209139 2,15 C2,12.790861 3.790861,11 6,11 C6.41665567,11 6.81843235,11.0637045 7.19612127,11.1819049 C7.75960062,9.33975064 9.47334255,8 11.5,8 C13.9852814,8 16,10.0147186 16,12.5 C16,12.7345695 15.9820524,12.9649471 15.9474555,13.1898344 C16.2749642,13.0671106 16.6296448,13 17,13 C18.6568542,13 20,14.3431458 20,16 C20,17.6568542 18.6568542,19 17,19 L6,19 Z"/>
    <circle cx="6" cy="15" r="4" fill="url(#ovc-a)" opacity=".24"/>
    <circle cx="17" cy="16" r="3" fill="url(#ovc-b)" opacity=".24"/>
    <circle cx="11.5" cy="12.5" r="4.5" fill="#FFF"/>
  </g>
</svg>
