<svg xmlns="http://www.w3.org/2000/svg" width="24" height="24" viewBox="0 0 24 24">
  <defs>
    <radialGradient id="ovc_-ra-a" cx="82.715%" cy="14.258%" fx="82.715%" fy="14.258%">
      <stop offset="0%" stop-color="#777AB4"/>
      <stop offset="100%" stop-color="#777AB4" stop-opacity="0"/>
    </radialGradient>
    <radialGradient id="ovc_-ra-b" cx="8.171%" cy="-6.535%" r="63.588%" fx="8.171%" fy="-6.535%">
      <stop offset="0%" stop-color="#777AB4"/>
      <stop offset="100%" stop-color="#777AB4" stop-opacity="0"/>
    </radialGradient>
  </defs>
  <g fill="none" fill-rule="evenodd">
    <path fill="#000" fill-opacity=".02" d="M7,15.5 C4.790861,15.5 3,13.709139 3,11.5 C3,9.290861 4.790861,7.5 7,7.5 C7.41665567,7.5 7.81843235,7.56370454 8.19612127,7.68190486 C8.75960062,5.83975064 10.4733425,4.5 12.5,4.5 C14.9852814,4.5 17,6.51471863 17,9 C17,9.23456947 16.9820524,9.46494706 16.9474555,9.68983445 C17.2749642,9.56711064 17.6296448,9.5 18,9.5 C19.6568542,9.5 21,10.8431458 21,12.5 C21,14.1568542 19.6568542,15.5 18,15.5 L7,15.5 Z"/>
    <path fill="#000" fill-opacity=".02" d="M7,15.75 C4.790861,15.75 3,13.959139 3,11.75 C3,9.540861 4.790861,7.75 7,7.75 C7.41665567,7.75 7.81843235,7.81370454 8.19612127,7.93190486 C8.75960062,6.08975064 10.4733425,4.75 12.5,4.75 C14.9852814,4.75 17,6.76471863 17,9.25 C17,9.48456947 16.9820524,9.71494706 16.9474555,9.93983445 C17.2749642,9.81711064 17.6296448,9.75 18,9.75 C19.6568542,9.75 21,11.0931458 21,12.75 C21,14.4068542 19.6568542,15.75 18,15.75 L7,15.75 Z"/>
    <path fill="#000" fill-opacity=".02" d="M7,16 C4.790861,16 3,14.209139 3,12 C3,9.790861 4.790861,8 7,8 C7.41665567,8 7.81843235,8.06370454 8.19612127,8.18190486 C8.75960062,6.33975064 10.4733425,5 12.5,5 C14.9852814,5 17,7.01471863 17,9.5 C17,9.73456947 16.9820524,9.96494706 16.9474555,10.1898344 C17.2749642,10.0671106 17.6296448,10 18,10 C19.6568542,10 21,11.3431458 21,13 C21,14.6568542 19.6568542,16 18,16 L7,16 Z"/>
    <path fill="#000" fill-opacity=".02" fill-rule="nonzero" d="M17.25,8.5 C17.25,5.87664744 15.1233526,3.75 12.5,3.75 C10.4804032,3.75 8.70821341,5.02165645 8.03456828,6.8768648 C7.69907844,6.79293371 7.35233296,6.75 7,6.75 C4.65278981,6.75 2.75,8.65278981 2.75,11 C2.75,13.3472102 4.65278981,15.25 7,15.25 L18,15.25 C19.7949254,15.25 21.25,13.7949254 21.25,12 C21.25,10.2050746 19.7949254,8.75 18,8.75 C17.7406655,8.75 17.4853551,8.78043326 17.2380174,8.83987416 C17.245992,8.72716388 17.25,8.61382401 17.25,8.5 Z"/>
    <path fill="#FFF" d="M7,15 C4.790861,15 3,13.209139 3,11 C3,8.790861 4.790861,7 7,7 C7.41665567,7 7.81843235,7.06370454 8.19612127,7.18190486 C8.75960062,5.33975064 10.4733425,4 12.5,4 C14.9852814,4 17,6.01471863 17,8.5 C17,8.73456947 16.9820524,8.96494706 16.9474555,9.18983445 C17.2749642,9.06711064 17.6296448,9 18,9 C19.6568542,9 21,10.3431458 21,12 C21,13.6568542 19.6568542,15 18,15 L7,15 Z"/>
    <circle cx="7" cy="11" r="4" fill="url(#ovc_-ra-a)" opacity=".24"/>
    <circle cx="18" cy="12" r="3" fill="url(#ovc_-ra-b)" opacity=".24"/>
    <circle cx="12.5" cy="8.5" r="4.5" fill="#FFF"/>
    <path stroke="#BCF2FE" stroke-linecap="round" stroke-linejoin="round" stroke-width="1.5" d="M8.80000019 17.7536011L7.75 20.2530518M13.8000002 16.7536011L12.75 19.2530518"/>
  </g>
</svg>
