<svg xmlns="http://www.w3.org/2000/svg" width="24" height="24" viewBox="0 0 24 24">
  <defs>
    <linearGradient id="ovc_ts_ra-a" x1="50%" x2="50%" y1="100%" y2="0%">
      <stop offset="0%" stop-color="#FFCA3C"/>
      <stop offset="100%" stop-color="#FFA400"/>
    </linearGradient>
    <radialGradient id="ovc_ts_ra-b" cx="82.715%" cy="14.258%" fx="82.715%" fy="14.258%">
      <stop offset="0%" stop-color="#777AB4"/>
      <stop offset="100%" stop-color="#777AB4" stop-opacity="0"/>
    </radialGradient>
    <radialGradient id="ovc_ts_ra-c" cx="8.171%" cy="-6.535%" r="63.588%" fx="8.171%" fy="-6.535%">
      <stop offset="0%" stop-color="#777AB4"/>
      <stop offset="100%" stop-color="#777AB4" stop-opacity="0"/>
    </radialGradient>
  </defs>
  <g fill="none" fill-rule="evenodd">
    <polygon fill="url(#ovc_ts_ra-a)" points="13 13 9 13 8 18 11 18 11 23 15 16 11.81 15.976"/>
    <path fill="#000" fill-opacity=".02" d="M7,14.5 C4.790861,14.5 3,12.709139 3,10.5 C3,8.290861 4.790861,6.5 7,6.5 C7.41665567,6.5 7.81843235,6.56370454 8.19612127,6.68190486 C8.75960062,4.83975064 10.4733425,3.5 12.5,3.5 C14.9852814,3.5 17,5.51471863 17,8 C17,8.23456947 16.9820524,8.46494706 16.9474555,8.68983445 C17.2749642,8.56711064 17.6296448,8.5 18,8.5 C19.6568542,8.5 21,9.84314575 21,11.5 C21,13.1568542 19.6568542,14.5 18,14.5 L7,14.5 Z"/>
    <path fill="#000" fill-opacity=".02" d="M7,14.75 C4.790861,14.75 3,12.959139 3,10.75 C3,8.540861 4.790861,6.75 7,6.75 C7.41665567,6.75 7.81843235,6.81370454 8.19612127,6.93190486 C8.75960062,5.08975064 10.4733425,3.75 12.5,3.75 C14.9852814,3.75 17,5.76471863 17,8.25 C17,8.48456947 16.9820524,8.71494706 16.9474555,8.93983445 C17.2749642,8.81711064 17.6296448,8.75 18,8.75 C19.6568542,8.75 21,10.0931458 21,11.75 C21,13.4068542 19.6568542,14.75 18,14.75 L7,14.75 Z"/>
    <path fill="#000" fill-opacity=".02" d="M7,15 C4.790861,15 3,13.209139 3,11 C3,8.790861 4.790861,7 7,7 C7.41665567,7 7.81843235,7.06370454 8.19612127,7.18190486 C8.75960062,5.33975064 10.4733425,4 12.5,4 C14.9852814,4 17,6.01471863 17,8.5 C17,8.73456947 16.9820524,8.96494706 16.9474555,9.18983445 C17.2749642,9.06711064 17.6296448,9 18,9 C19.6568542,9 21,10.3431458 21,12 C21,13.6568542 19.6568542,15 18,15 L7,15 Z"/>
    <path fill="#000" fill-opacity=".02" fill-rule="nonzero" d="M17.25,7.5 C17.25,4.87664744 15.1233526,2.75 12.5,2.75 C10.4804032,2.75 8.70821341,4.02165645 8.03456828,5.8768648 C7.69907844,5.79293371 7.35233296,5.75 7,5.75 C4.65278981,5.75 2.75,7.65278981 2.75,10 C2.75,12.3472102 4.65278981,14.25 7,14.25 L18,14.25 C19.7949254,14.25 21.25,12.7949254 21.25,11 C21.25,9.20507456 19.7949254,7.75 18,7.75 C17.7406655,7.75 17.4853551,7.78043326 17.2380174,7.83987416 C17.245992,7.72716388 17.25,7.61382401 17.25,7.5 Z"/>
    <path fill="#FFF" d="M7,14 C4.790861,14 3,12.209139 3,10 C3,7.790861 4.790861,6 7,6 C7.41665567,6 7.81843235,6.06370454 8.19612127,6.18190486 C8.75960062,4.33975064 10.4733425,3 12.5,3 C14.9852814,3 17,5.01471863 17,7.5 C17,7.73456947 16.9820524,7.96494706 16.9474555,8.18983445 C17.2749642,8.06711064 17.6296448,8 18,8 C19.6568542,8 21,9.34314575 21,11 C21,12.6568542 19.6568542,14 18,14 L7,14 Z"/>
    <circle cx="7" cy="10" r="4" fill="url(#ovc_ts_ra-b)" opacity=".24"/>
    <circle cx="18" cy="11" r="3" fill="url(#ovc_ts_ra-c)" opacity=".24"/>
    <circle cx="12.5" cy="7.5" r="4.5" fill="#FFF"/>
    <path stroke="#BCF2FE" stroke-linecap="round" stroke-linejoin="round" stroke-width="1.5" d="M5.80000019 16.7536011L4.75 19.2530518M17.8000002 15.7536011L16.75 18.2530518"/>
  </g>
</svg>
